<svg id="Layer_1" data-name="Layer 1" xmlns="http://www.w3.org/2000/svg" viewBox="0 0 964.43 509.98"><defs><style>.cls-1{fill:#253d4f;}.cls-2{fill:#dda400;}</style></defs><path class="cls-1" d="M518.29,767,511,762.07l4.61-3.89c.06.42.13.85.19,1.27,3.46,0,7.15.71,10.27-.29,1.64-.52,2.28-4,3.87-7.22-3.71,1.06-5.73,1.92-7.83,2.17-5.87.68-10.47-2.73-10.94-8.53a88.26,88.26,0,0,1,.09-14.9c.42-4.79,4-7.87,9-7.84,4.63,0,9.27.62,14.28,1,0,11,.26,22.41-.11,33.83-.17,5.17-5,7.13-8.94,9.33Zm10.43-28.69c0-1.34.55-3.06-.1-3.92-1.56-2-3.42-4.73-5.63-5.25-3.42-.81-5.49,1.84-6,5.26a29,29,0,0,0-.27,3.49c-.22,6.65,1.94,10.22,6.15,10.21S528.8,745,528.72,738.31Z" transform="translate(-167.07 -257.02)"/><path class="cls-1" d="M741.35,359.26l5.84-3.62,11.58,21.43-1.2,1.07c-2.56-1.93-5.08-3.91-7.69-5.78a62.2,62.2,0,0,0-6.72-4.47c-2.54-1.36-5.58-2.82-7.71.33-2,2.95-2.43,6.36.58,9.13a124.25,124.25,0,0,0,10,8.48,169.22,169.22,0,0,0,14.26,9.6,13.17,13.17,0,0,1,6.72,8.82c2.63,11.1,5.51,22.14,7.66,34.07a44.17,44.17,0,0,1-4.52-4.33c-7.6-9.54-13.93-20.08-24.22-27.44-5.14-3.67-9.58-8.31-14.23-12.63-1.53-1.42-2.71-3.21-5.16-4.49v20.1l-.82.27a27.63,27.63,0,0,1-2.28-4.06c-4.26-11.83-12.25-21-21.57-29.19-2.4-2.12-4.75-4.29-7.17-6.37-4.52-3.87-7.24-8.28-7.46-14.59-.16-4.86-2.24-9.67-3.56-14.47-1.63-5.91-3.58-11.73-5-17.68-1.54-6.39-5-11.75-10.64-14.64-18.57-9.55-31.55-25.52-47.12-38.49-1.25-1-2.52-2.05-4.07-3.33-1.82,3.6-3,6.95-5,9.72A64.85,64.85,0,0,1,602.1,288c-4.92,4.24-8,8.77-7.55,15.49.11,1.45-1.83,3.17-3.08,4.54-1.61,1.79-4.13,3-5.13,5.08-4.87,9.87-9.69,19.83-9.07,31.28a15.66,15.66,0,0,1-.35,3.47c-.08.44-.49.83-2.17,1.6-2.55-9-5.09-18.09-7.82-27.82-8.94,10.79-17.54,21.05-25.88,31.51-.77,1-.34,3.37.28,4.8a39.55,39.55,0,0,1,2.24,26.38,27.91,27.91,0,0,1-4,8.56c-4.07,5.88-9.36,6.63-14.55,1.68a283,283,0,0,1-19.84-20.71c-9.82-11.48-12.92-12.39-25.14-3.36-16.27,12-32,24.72-48.21,36.8-5.5,4.1-11.66,7.39-17.74,10.66-1.69.91-4.83,1.26-6.09.32s-1-3.83-1.09-5.89a32.64,32.64,0,0,1,.57-4.45c.62-6.58-1.64-8.48-7.42-4.88-10.85,6.76-21.34,14.13-31.55,21.81-5,3.75-10,6.6-16.16,7.7-13.81,2.46-27.42,6.3-43.24,5.13,3.4-2.46,5.79-4.32,8.31-6,6.9-4.52,13.86-9,20.8-13.43,2-1.27,3.91-2.67,6-3.74,8.52-4.38,17.17-8.53,25.61-13.05,2.76-1.48,5.78-3.39,7.4-5.9,6.13-9.52,15.81-14.66,24.8-20.76,6.62-4.48,12.77-9.69,19.58-13.86,14.9-9.12,30.1-17.75,45.14-26.64,15.46-9.13,30.95-18.2,46.28-27.53,11.16-6.78,21.93-14.17,33.15-20.84,8.74-5.2,17.79-9.93,26.92-14.46,9.66-4.78,19.55-9.14,29.41-13.52,1.58-.71,3.84-1.26,5.31-.69,12.46,4.76,24.74,9.86,35.61,17.78,9.72,7.09,19.68,13.87,29.67,20.6a6,6,0,0,0,4.75.46c4.55-1.72,8.39-4.91,14.11-3.41,2.35.61,5.6-1.84,8.35-3.09A71.43,71.43,0,0,0,707,286c17.88-10.51,28.21-9.77,44.7,3.07a17.76,17.76,0,0,0,5.78,2.86c12.78,3.83,25.65,7.39,38.4,11.32,3.5,1.08,6.63,3.29,10,4.72,10.87,4.57,22,8.54,32.62,13.65S860.3,331.75,869.34,339c10.81,8.72,22.83,13.87,35.63,18.3,10.39,3.6,18.07,10.82,25,19,5.88,6.89,12.11,13.51,18.49,19.95,7.18,7.24,15.8,12.4,25.23,16.51a124.25,124.25,0,0,1,17.14,9.53c7.63,4.91,15,10.26,23,15.86-3.94-.42-7.67-.48-11.23-1.28-6.77-1.51-13.52-3.18-20.1-5.3a59.57,59.57,0,0,1-12.7-5.74c-15-9.18-27-21.63-38.43-34.68-6.4-7.31-13.94-12.71-23.77-15.41-12.75-3.5-23.14-11.58-33.8-19-5.48-3.83-11.53-6.85-17.17-10.47A87.68,87.68,0,0,1,847,339a35.3,35.3,0,0,0-22.68-7.94c10.68,11.81,23.39,20.15,36.07,29-1.58-.49-3.2-.9-4.75-1.48-18.08-6.83-33.27-17.73-46.39-31.62a23.06,23.06,0,0,0-7.29-5.06c-13.88-6.21-27.9-12.08-41.77-18.3-4.45-2-8.44-5-12.9-6.94A52,52,0,0,0,735,292.85c-3.07-.51-4.83,1.47-3.34,4.76,3,6.72,2.19,13.32-.64,19.83-3,6.86-1.44,12.62,4.08,17.58,3.74,3.36,7.38,6.83,11.5,10.67-8.79,1.55-1.94,9.25-6.91,12.24Z" transform="translate(-167.07 -257.02)"/><path class="cls-1" d="M555.82,605.86c-6.09,0-12,.24-17.86-.19-1.22-.09-2.72-2.47-3.32-4.07q-14.6-38.85-29-77.79A11.89,11.89,0,0,0,503,519.3v86.17H480.94v-5.05c0-45.66.08-91.32-.11-137,0-4.68,1.36-6.17,6-5.77,4.88.43,11-1.34,14.36,1s4.06,8.4,5.72,12.91q12.4,33.81,24.69,67.63a14,14,0,0,0,3.34,5.56v-5.3c0-25.49.09-51-.1-76.48,0-4.21,1.24-5.56,5.44-5.29,5,.32,10.11.08,15.57.08Z" transform="translate(-167.07 -257.02)"/><path class="cls-1" d="M188.07,605.64h-21q0-73.71,0-146.93c.25-.23.49-.64.74-.64,14,0,28-.8,41.9.44,13.52,1.21,22.91,9.7,25.76,23a112.89,112.89,0,0,1,2,29.15c-.6,11.9-6.27,21.61-17.48,27.49,7.65,22.66,15.17,45,22.85,67.72-7.11,0-13.6.2-20-.17-1.27-.07-3-2.15-3.51-3.64-5.54-17.25-10.76-34.6-16.31-51.84-2.84-8.85-.4-7.37-10.41-7.53-1.32,0-2.63.11-4.47.2Zm.11-81.4c5.89-.3,11.23-.23,16.47-.93,6.69-.9,10.63-4.31,11.23-10.82a131.39,131.39,0,0,0,.05-23.3c-.56-6.39-4.83-10.36-11.14-11-5.38-.58-10.88-.12-16.61-.12Z" transform="translate(-167.07 -257.02)"/><path class="cls-1" d="M722.37,458.3c13.78,0,27.41-1,40.8.27,15.93,1.55,26,12.9,27.88,28.59a105.77,105.77,0,0,1,.76,12.95c-.09,24,.39,48-.69,71.93-1,21.14-13,32.29-34.74,33.55-11.15.65-22.37.12-34,.12ZM743.79,478V585.58c4.86,0,9.31.47,13.62-.11,7.52-1,11.28-5.06,12.33-12.46a53.38,53.38,0,0,0,.35-7.48q0-25.49,0-51c0-7.66.15-15.34-.3-23s-4.54-12.67-11.18-13.47C753.81,477.53,748.88,478,743.79,478Z" transform="translate(-167.07 -257.02)"/><path class="cls-1" d="M1058,564.29h21.19c0,2.4-.1,4.83,0,7.24.41,8.94,6.32,14.45,15.38,14.45,9.57,0,14.91-4.87,15.28-14.27.21-5.48.12-11-.06-16.46s-2.74-9.86-8.21-12.12c-6.71-2.77-13.35-5.69-20.12-8.29-14.82-5.71-21.72-16.64-22.59-31.89-.59-10.31.2-20.29,5.37-29.54,7.6-13.62,24.23-20.11,40.78-16,15.78,4,26.37,17,26.45,32.51,0,3.14,0,6.28,0,9.85h-21.12c-.14-2.37-.24-4.8-.44-7.22-.79-9.51-5.85-14.72-14.45-14.91s-14,4.65-15,14.19a65.57,65.57,0,0,0-.06,11.47c.36,5.46,3.35,9.37,8.45,11.51,6.84,2.87,13.72,5.7,20.69,8.25,14.2,5.2,21.6,15.26,21.54,30,0,10.09,0,20.44-2.23,30.18-3.9,17-18.63,25.27-38.85,23.58-16.09-1.35-30.3-14.31-32-29.46C1057.62,573.18,1058,568.86,1058,564.29Z" transform="translate(-167.07 -257.02)"/><path class="cls-1" d="M364.4,605.88c-6.57,0-12.51.2-18.42-.15a5.28,5.28,0,0,1-3.68-3.25c-1.92-8.09-3.65-16.24-5-24.44-.56-3.46-2.05-4.31-5.32-4.22-6.95.2-13.91.19-20.86,0-3.06-.08-4.41.67-5,3.94-1.59,9.31-3.69,18.54-5.61,27.92H279.08c3.56-15.78,7-31.34,10.57-46.88,7.31-32.12,14.72-64.23,21.88-96.38.82-3.7,2.27-4.8,6-4.78,13.11.08,13.18-.07,16,12.37C343.82,515.11,354,560.2,364.4,605.88Zm-32-52.13c-3.5-17.61-6.88-34.6-10.26-51.58l-1.19.17-10,51.41Z" transform="translate(-167.07 -257.02)"/><path class="cls-1" d="M889,574.11H859.6l-6.43,31.53H831.7c2.31-10.28,4.55-20.3,6.82-30.31,8.39-37,16.92-74,25.06-111.05,1.17-5.31,3.26-6.9,8.69-6.68,11.16.45,11.07.15,13.53,11q14.94,66,30,132c.36,1.6.62,3.22,1,5.09H895.44C893.29,595.1,891.17,584.7,889,574.11ZM885,553.74c-3.46-17.54-6.86-34.74-10.26-51.94l-1,0-10.21,51.9Z" transform="translate(-167.07 -257.02)"/><path class="cls-2" d="M1076.88,652.12q-436.85,11.67-873.7,0Q640,645.34,1076.88,652.12Z" transform="translate(-167.07 -257.02)"/><path class="cls-1" d="M598.38,457.8c7.38,0,14.12-.21,20.82.19,1.17.08,2.67,2.61,3.18,4.25,5,16.41,9.81,32.87,14.69,49.31.37,1.24.87,2.45,1.77,5,3.52-11.8,6.66-22.34,9.78-32.88,2.23-7.5,4.33-15,6.71-22.5.41-1.29,1.86-3.18,2.9-3.23,6.72-.29,13.47-.15,20.84-.15-5,14.49-9.74,28.33-14.52,42.15-4.59,13.22-9.28,26.4-13.76,39.65a25.13,25.13,0,0,0-1.22,7.8c-.11,17.49-.06,35-.06,52.48v5.7H628V598c0-16.5.08-33-.07-49.48a29.64,29.64,0,0,0-1.52-9.25c-8.65-25.38-17.47-50.7-26.24-76C599.62,461.68,599.14,460.12,598.38,457.8Z" transform="translate(-167.07 -257.02)"/><path class="cls-1" d="M1019.11,457.75c-5.19,15-10,29-14.89,43-4.48,12.91-9,25.79-13.4,38.74a25.16,25.16,0,0,0-1.18,7.81c-.1,19.31,0,38.62,0,58.27H968.31c-.09-1.91-.24-3.68-.24-5.46,0-10.5-.64-21.05.12-31.49,1.27-17.34-2.4-33.53-8.56-49.64-7.26-19-13.44-38.38-20.08-57.6-.31-.91-.46-1.88-.86-3.56,7.1,0,13.82-.18,20.52.18,1.09.06,2.55,2.32,3,3.8,4.84,15.94,9.51,31.93,14.24,47.9a13.4,13.4,0,0,0,2.81,5.53q5.76-19.46,11.52-38.91c1.51-5.12,2.82-10.3,4.6-15.32.46-1.32,2.29-3,3.57-3.07C1005.36,457.58,1011.78,457.75,1019.11,457.75Z" transform="translate(-167.07 -257.02)"/><path class="cls-1" d="M403.5,458h20.39V605.6H403.5Z" transform="translate(-167.07 -257.02)"/><path class="cls-1" d="M727.92,754l-5.94-.26V722.58c7.49,4.16,16-3.89,22.57,3.26,2.76-1.05,5.17-2.44,7.74-2.86,8.15-1.32,13.13,2.87,13.27,10.95.11,6.46,0,12.93,0,19.76l-6,.38c0-5.87.19-11.46-.09-17-.11-2.19-.64-5-2.09-6.31s-4.8-2.1-6.33-1.3a8.81,8.81,0,0,0-4.21,6c-.57,5.92-.19,11.92-.19,18.29l-6.11.38c0-6.26.44-12.21-.21-18-.28-2.45-2.33-5.69-4.49-6.74-3.93-1.91-7.81,1.43-7.91,6.21C727.82,741.57,727.92,747.67,727.92,754Z" transform="translate(-167.07 -257.02)"/><path class="cls-1" d="M330.15,753.65V710.84c6.59,0,13-.53,19.28.14,6.82.73,10.69,6.58,10.21,13.79a12.45,12.45,0,0,1-12.36,12.09c-3.36.13-6.74,0-11,0v16.77Zm6.55-22.91c3.74,0,7.14.33,10.44-.08,4.12-.52,6.2-3.4,6.11-7.36-.09-4.15-2.66-6.36-6.83-6.56-3.16-.14-6.33,0-9.72,0Z" transform="translate(-167.07 -257.02)"/><path class="cls-1" d="M685.13,722.54c-3.57.68-6.09.56-8.54-2.66-1.43-1.89-5.46-3.2-7.87-2.7s-5.81,3.37-6.12,5.56a63.57,63.57,0,0,0-.17,18.78c1.09,6.67,9.36,8.18,14.34,3.51,2-1.83,4.91-2.67,8.38-4.46-1.44,9.1-6.54,13.49-14,13.67-7.67.18-14.44-4.25-15.16-11.18a109.72,109.72,0,0,1,0-21.82c.63-6.47,7.19-11,14.22-11.12C678,710,683.2,714.23,685.13,722.54Z" transform="translate(-167.07 -257.02)"/><path class="cls-1" d="M877.24,753.72c1.08-3.33,1.5-6.14,2.83-8.44,5.42-9.37,11.12-18.59,17.28-28.8h-19v-5.8h27.46c-.75,2.73-.93,5.36-2.14,7.41-4.92,8.33-10.16,16.47-15.26,24.7-.86,1.39-1.63,2.84-2.86,5H905v5.94Z" transform="translate(-167.07 -257.02)"/><path class="cls-1" d="M600.7,753.73h-5.93c0-5.87,0-11.5,0-17.12,0-4-1-7.43-6-7.69-4.11-.21-6.25,2.47-6.32,7.84s0,11,0,16.83h-5.74v-43h5.58v14.55c1.84-.79,3-1.37,4.21-1.79,7.11-2.46,13.78,1.62,14.13,9C601,739.31,600.7,746.29,600.7,753.73Z" transform="translate(-167.07 -257.02)"/><path class="cls-1" d="M435.66,725.05c11.48-4.6,18.21-1.1,18.46,8.77.13,5,0,10,0,15v4.81h-6c0-5.73,0-11.35,0-17,0-4-1-7.43-5.95-7.72-4.11-.23-6.28,2.46-6.35,7.82s0,11,0,16.84H430.1v-43h5.56Z" transform="translate(-167.07 -257.02)"/><path class="cls-1" d="M1000.78,740.89H982.15c.89,7.75,5.67,9.38,14,5l3.8,3.27c-3.63,4.74-8.38,5.65-13.63,4.78s-8.92-3.88-9.66-9a38.9,38.9,0,0,1,.18-13.7c1.4-6.37,6.87-9.3,13.55-8.43,5.92.77,10.09,5.43,10.38,11.69C1000.85,736.4,1000.78,738.23,1000.78,740.89Zm-6.08-5.54c-.75-4.83-2.91-7.27-7.25-6.75-3.71.44-5.42,2.78-5.19,6.75Z" transform="translate(-167.07 -257.02)"/><path class="cls-1" d="M633.35,740.89H613.8c1.7,2.72,2.55,5.83,4.09,6.2,3.4.81,7.14.25,10.74.25l.21-1.5c1.23,1.07,2.47,2.13,3.9,3.36-3.83,4.87-8.76,5.72-14.13,4.7s-8.78-4.49-9.51-9.73a38,38,0,0,1,.07-11.8c1.25-6.86,6.75-10.36,13.75-9.51,6.25.77,10.26,5.39,10.42,12C633.39,736.69,633.35,738.49,633.35,740.89Zm-6.12-5.46c-.26-4.62-2.43-7.12-6.6-6.91-3.83.2-6,2.5-5.61,6.91Z" transform="translate(-167.07 -257.02)"/><path class="cls-1" d="M302.12,714.88l-13.74,18.55c5.93,6.9,11.92,13.86,17.9,20.83l-1,1.16-21.57-16.93-20.8,16.6-1.28-1.17,17.48-20.5-13.46-18.23,1-.87,17.12,14.61L301,714.09Z" transform="translate(-167.07 -257.02)"/><path class="cls-1" d="M1047.87,728.91,1065,714.26l1,.89-13.51,18.29L1070.13,754l-1.14,1.23-21.1-16.69-21.18,16.75-1.17-1.17q8.84-10.29,17.72-20.67c-4.44-6-9-12.09-13.57-18.21l1-1Z" transform="translate(-167.07 -257.02)"/><path class="cls-1" d="M689.33,738.14c0-11.2,5.17-16.49,14.82-15.27a14.85,14.85,0,0,1,1.51.24c7.39,1.84,10.89,11.68,8,22.56-1.61,6.16-8.42,9.84-15.22,8.24C692.06,752.4,689.31,747.66,689.33,738.14Zm5.72.39c.38,2,.15,4.42,1.26,5.77,1.41,1.71,3.89,3.49,5.93,3.51,1.8,0,4.84-2.11,5.18-3.72a27.12,27.12,0,0,0-.1-11.24c-.37-1.61-3.4-3.71-5.17-3.67-2,.05-4.44,1.89-5.82,3.61C695.23,734.17,695.43,736.56,695.05,738.53Z" transform="translate(-167.07 -257.02)"/><path class="cls-1" d="M936,738.27c0,11.41-5,16.94-14.26,15.84-4.85-.57-8.61-3.11-9.64-7.64-1.59-6.94-2.81-14.23,2.64-20.35,3.57-4,8.45-4,13.17-2.84C933.43,724.62,936,729.75,936,738.27Zm-6.07,1.61c0-2.2.06-3,0-3.86-.33-3.82-1.66-7-6.2-7.07s-6.18,2.89-6.44,6.79c-.16,2.31-.74,5.08.28,6.86,1.29,2.25,3.8,4.74,6.19,5.24,3.29.7,5.52-1.92,6-5.34A19.19,19.19,0,0,0,929.94,739.88Z" transform="translate(-167.07 -257.02)"/><path class="cls-1" d="M816.85,738.53c-1,11.42-6.42,17-15.79,15.51-5.44-.85-9.18-4.82-9.86-10.5-1.32-10.93,1-17.55,7.18-20,5-2,11.83-.86,14.6,3.58C815.05,730.44,815.62,734.69,816.85,738.53Zm-6.91-.06c-.18-1.47.15-3.78-.8-5.32-1.09-1.77-3.3-3.92-5.06-4-2,0-5.49,1.76-5.83,3.29a29.15,29.15,0,0,0-.08,12.09c.33,1.51,4,3.41,5.91,3.21s3.94-2.56,5.34-4.39C810.19,742.37,809.77,740.49,809.94,738.47Z" transform="translate(-167.07 -257.02)"/><path class="cls-1" d="M421.81,726.87l-3.18,3.63c-3.61-.76-6.67-1.84-9.74-1.84-1.36,0-2.73,2.18-4.09,3.37,1.32,1,2.5,2.45,4,3,1.87.64,4,.51,6,.75,4.44.53,7.09,2.93,7.61,7.34.57,4.67-1.26,8-5.77,10-6.33,2.7-14.29,1.06-19.75-4.37l2.76-3.09c4.18,1,7.81,2.41,11.5,2.58,1.68.07,3.47-2.28,5.21-3.54-1.6-1.12-3.05-2.59-4.82-3.25s-3.71-.23-5.52-.6c-4.43-.91-7.27-3.42-7.54-8.1s1.76-8,6.17-9.19C410.56,721.9,416.39,722.2,421.81,726.87Z" transform="translate(-167.07 -257.02)"/><path class="cls-1" d="M384.63,723.27h5.78v30.65L385,753.5c-1.24-.09-2.63-.56-3.7-.17-7.67,2.76-14.43-1.12-14.83-9.05-.34-6.8-.07-13.62-.07-21l6.13-.31c0,6.1,0,11.88,0,17.66.05,5,2.23,7.67,6.14,7.44,4.59-.28,5.85-3.39,5.89-7.27C384.67,735.15,384.63,729.5,384.63,723.27Z" transform="translate(-167.07 -257.02)"/><path class="cls-1" d="M484.42,753.82h-5.71V723c1.84.13,3.46.22,5.07.37,1.2.11,2.58.76,3.57.39,8-3,14.77.74,15.22,9,.38,6.79.08,13.61.08,20.82l-6,.48c0-4.59,0-8.85,0-13.11a46.74,46.74,0,0,0-.18-6.49c-.52-3.55-2.47-5.87-6.46-5.58-3.69.27-5.45,2.6-5.53,6C484.32,741,484.42,747.18,484.42,753.82Z" transform="translate(-167.07 -257.02)"/><path class="cls-1" d="M968.2,753.75h-6c0-4.57,0-9,0-13.46a39.62,39.62,0,0,0-.32-6c-.59-3.61-2.75-5.76-6.64-5.36-3.62.37-5.29,2.75-5.32,6.18-.07,6.12,0,12.25,0,18.61H944.2V723c1.88.12,4.43-.37,5,.44,1.54,2.3,2.56.81,4,.23,7-2.9,13.6.64,14.81,8a26.87,26.87,0,0,1,.23,4.49C968.22,741.93,968.2,747.72,968.2,753.75Z" transform="translate(-167.07 -257.02)"/><path class="cls-1" d="M782,753.72h-6c0-7.3.11-14.59-.1-21.86,0-1.46-1.4-2.84-1.9-4.33a12.16,12.16,0,0,1-.62-3.81c3.57-1,2.39-3.85,2.66-6.12.64-5.45,3.82-7.44,11.62-7V716c-4.17,0-6.94,1.45-5.11,6.59l4.89.7c2.48,5.47-2.46,4.06-5.42,4.77Z" transform="translate(-167.07 -257.02)"/><path class="cls-1" d="M560,714.07h5.07c.13,1.71.29,3.16.33,4.61.07,2.17-.27,4.36,3.16,4.53.7,0,1.3,2.28,2.31,4.21-4.83-.27-5.8,1.76-5.52,5.16s.07,7,.06,10.46c0,3-.14,6.1,4.45,5.14v5.34c-7.52.92-10.36-1.37-10.48-8.36-.08-4.32.18-8.65-.12-12.94-.11-1.66-1.39-3.22-2-4.87-.38-1-.94-3-.72-3.06C561.16,722.08,558.3,717.44,560,714.07Z" transform="translate(-167.07 -257.02)"/><path class="cls-1" d="M858.34,753.79c-7.73.17-10-1.87-10-8.52,0-4,.1-8,0-12-.08-2.24,1.2-5.1-2.48-6.16-.44-.13-.71-2.94-.44-3.05,5-2,2-6.69,3.44-10h5.27c.09,1.85-.13,3.56.34,5.07a15.79,15.79,0,0,0,2.47,3.92c.5.72,1.64,1.42,1.56,2a5.58,5.58,0,0,1-1.65,2.55c-.27.31-1.38.26-1.38.36.1,6.66.27,13.32.44,20C860.05,748.44,858.35,751.22,858.34,753.79Z" transform="translate(-167.07 -257.02)"/><path class="cls-1" d="M829.74,753.86h-5.6v-30h20.62c-2.8,3.73-3.74,6.82-8.5,5.26-3.54-1.17-6.39,2-6.49,6.32C829.64,741.38,829.74,747.35,829.74,753.86Z" transform="translate(-167.07 -257.02)"/><path class="cls-1" d="M463.66,754.07V723.32l5.34-.38v30.75Z" transform="translate(-167.07 -257.02)"/><path class="cls-1" d="M463.58,716.3v-5.69l5.41-.33v6Z" transform="translate(-167.07 -257.02)"/></svg>